<svg xmlns="http://www.w3.org/2000/svg" width="250" height="281" viewBox="0 0 250 281" version="1.1"><path d="M 30.989 42.297 C 30.983 43.508, 30.706 46.147, 30.373 48.160 C 29.703 52.208, 36.828 61, 40.778 61 C 44.358 61, 51.497 51.347, 48.250 50.896 C 47.837 50.838, 45.745 50.683, 43.600 50.551 C 39.631 50.307, 37.006 48.125, 36.994 45.059 C 36.990 44.201, 35.640 42.733, 33.994 41.797 C 31.059 40.127, 31 40.137, 30.989 42.297 M 41.446 44.087 C 40.416 45.755, 42.733 47.667, 44.113 46.287 C 45.267 45.133, 44.545 43, 43 43 C 42.515 43, 41.816 43.489, 41.446 44.087 M 131.142 109.552 C 132.440 114.254, 131.899 118.500, 130 118.500 C 128.896 118.500, 128.420 117.116, 128.198 113.250 C 127.866 107.494, 127.556 107.222, 124.090 109.650 C 121.896 111.186, 121.321 123.654, 123.351 125.684 C 124.628 126.961, 131.815 123.820, 132.372 121.742 C 133.156 118.816, 133.170 109.606, 132.393 107.582 C 131.198 104.468, 130.181 106.070, 131.142 109.552 M 97 113.140 C 97 117.814, 97.418 119.597, 98.750 120.608 C 102.156 123.194, 103.238 122.354, 102.430 117.750 C 102.019 115.412, 101.616 112.750, 101.534 111.833 C 101.360 109.906, 99.162 107, 97.878 107 C 97.395 107, 97 109.763, 97 113.140 M 149.051 141.250 C 145.095 160.281, 126.559 179.894, 119.752 172.250 C 116.556 168.662, 113.993 162.223, 113.364 156.206 C 112.621 149.099, 111.464 148.472, 107.589 153.077 C 104.508 156.739, 104.373 159.787, 106.510 177.500 C 107.307 184.100, 107.968 191.797, 107.979 194.605 C 107.999 199.447, 108.314 200.054, 114.071 206.336 C 120.530 213.385, 122.339 214.254, 133.250 215.548 C 136.412 215.923, 139 216.629, 139 217.115 C 139 218.272, 128.619 218.212, 123.503 217.026 C 120.516 216.333, 117.899 214.444, 113.147 209.550 C 106.132 202.325, 106 202.237, 106 204.768 C 106 208.308, 120.005 221.616, 126.267 224.026 C 135.938 227.749, 133.883 229.206, 123 226.344 C 120.508 225.688, 120.506 225.693, 122.411 227.849 C 123.461 229.039, 124.017 230.316, 123.646 230.688 C 122.541 231.793, 116.067 224.980, 111.452 217.854 C 106.680 210.488, 105.336 209.264, 103.753 210.847 C 102.413 212.187, 106.211 218.186, 111.647 223.315 C 117.650 228.978, 111.975 228.702, 104.697 222.977 C 103.156 221.764, 101.770 220.936, 101.618 221.136 C 101.466 221.336, 99.402 225.100, 97.032 229.500 C 94.662 233.900, 91.829 238.774, 90.736 240.331 C 88.170 243.985, 89.034 245.682, 98.197 254.991 C 111.941 268.955, 120.048 270.470, 123.565 259.732 C 127.041 249.119, 132.540 240.044, 142.780 228.023 C 147.135 222.910, 154 211.594, 154 209.529 C 154 208.196, 148.561 209.200, 146.347 210.942 L 143.878 212.884 136.957 209.410 C 129.291 205.563, 127.541 203.365, 128.537 198.833 C 128.982 196.807, 128.607 194.454, 127.418 191.818 L 125.630 187.852 128.579 185.096 C 130.201 183.580, 134.288 180.811, 137.662 178.942 L 143.796 175.544 148.462 177.874 C 154.450 180.864, 154.425 180.916, 152.305 169.866 C 151.008 163.111, 150.600 157.085, 150.841 148.250 C 151.203 134.929, 150.740 133.119, 149.051 141.250 M 188 176 C 188 176.550, 188.450 177, 189 177 C 189.550 177, 190 176.550, 190 176 C 190 175.450, 189.550 175, 189 175 C 188.450 175, 188 175.450, 188 176 M 95.459 207.067 C 95.096 207.653, 95.014 208.348, 95.276 208.610 C 95.538 208.872, 96.019 208.392, 96.345 207.543 C 97.021 205.781, 96.445 205.471, 95.459 207.067 M 99.872 207.750 C 98.629 209.336, 98.664 209.371, 100.250 208.128 C 101.916 206.821, 102.445 206, 101.622 206 C 101.415 206, 100.627 206.787, 99.872 207.750 M 187.232 210 C 187.232 211.925, 187.438 212.713, 187.689 211.750 C 187.941 210.787, 187.941 209.213, 187.689 208.250 C 187.438 207.287, 187.232 208.075, 187.232 210 M 195.872 215.750 C 194.629 217.336, 194.664 217.371, 196.250 216.128 C 197.916 214.821, 198.445 214, 197.622 214 C 197.415 214, 196.627 214.787, 195.872 215.750 M 66 224.012 C 66 224.465, 65.699 225.661, 65.330 226.668 C 64.685 228.434, 64.737 228.433, 66.767 226.652 C 67.958 225.608, 69.404 225.131, 70.091 225.557 C 70.818 226.005, 71.051 225.892, 70.670 225.275 C 69.856 223.959, 66 222.915, 66 224.012 M 143.549 252.113 C 140.276 253.239, 135.213 255.743, 132.298 257.678 C 127.130 261.108, 124.183 263.971, 127.086 262.741 C 151.568 252.368, 161.552 245.923, 143.549 252.113" stroke="none" fill="#ffffff" fill-rule="evenodd"/><path d="M 52.542 22.367 C 49.324 25.585, 49.330 28.050, 52.565 31.894 C 54.914 34.687, 55.042 35.301, 54.089 39.221 L 53.048 43.500 53.542 39.213 C 54.740 28.806, 44.622 23.912, 36.122 30.787 C 30.183 35.590, 33.727 41.561, 41.759 40.287 C 45.563 39.684, 48 41.299, 48 44.422 C 48 48.895, 51.637 50.438, 52.308 46.250 C 52.600 44.422, 52.733 44.840, 52.705 47.500 C 52.651 52.487, 50.625 56.747, 46.742 60.037 C 42.206 63.880, 43.461 69.169, 48.837 68.861 C 50.852 68.746, 53.479 69.268, 54.676 70.020 C 56.404 71.107, 57.387 71.145, 59.449 70.205 C 61.745 69.159, 62.527 69.369, 66.174 72.011 C 68.443 73.655, 71.047 75, 71.959 75 C 73.761 75, 78.173 72.084, 76.450 72.032 C 75.873 72.014, 74.860 72.540, 74.200 73.200 C 71.900 75.500, 72.887 68.513, 75.584 63.399 C 79.350 56.258, 82.803 52.913, 85.666 53.631 C 89.785 54.665, 88.331 51.538, 83.002 47.907 C 80.253 46.033, 78.003 43.769, 78.002 42.876 C 77.995 36.983, 69.749 25.115, 66.522 26.353 C 65.756 26.647, 64.430 25.779, 63.518 24.387 C 62.574 22.946, 61.130 22.022, 60.096 22.197 C 59.112 22.364, 57.582 21.898, 56.696 21.162 C 55.315 20.016, 54.720 20.189, 52.542 22.367 M 39.441 30.468 C 36.931 32.367, 38.842 32.403, 43.135 30.539 C 46.285 29.172, 46.336 29.076, 43.941 29.039 C 42.534 29.018, 40.509 29.661, 39.441 30.468 M 102 62.936 C 92.253 64.903, 88.610 68.926, 89.199 77.071 L 89.643 83.213 83.572 86.027 C 80.232 87.575, 75.354 89.131, 72.731 89.485 C 66.495 90.326, 62.447 93.660, 63.340 97.218 C 64.318 101.115, 71.405 101.671, 77.394 98.319 C 79.607 97.081, 71.994 94.550, 68.956 95.514 C 65.638 96.567, 66.798 94.982, 70.468 93.449 C 77.430 90.540, 88.021 91.825, 115.478 98.909 C 133.249 103.494, 139.484 102.693, 154.240 93.927 C 160.203 90.384, 161 89.555, 161 86.896 C 161 84.767, 160.633 84.094, 159.750 84.602 C 159.063 84.998, 159.512 84.208, 160.750 82.847 C 161.988 81.485, 163 79.807, 163 79.118 C 163 78.243, 162.321 78.112, 160.750 78.683 C 155.152 80.716, 148.320 79.338, 139.271 74.350 C 125.110 66.544, 110.595 61.195, 106.066 62.115 C 105.755 62.178, 103.925 62.548, 102 62.936 M 136.674 181.180 C 132.624 183.828, 132.116 184.486, 133.518 185.270 C 134.436 185.784, 135.820 187.719, 136.594 189.571 C 137.922 192.748, 141 193.556, 141 190.726 C 141 190.144, 141.242 189.909, 141.537 190.204 C 141.833 190.500, 141.537 191.923, 140.879 193.367 C 139.497 196.400, 141.818 200, 145.155 200 C 146.170 200, 147 200.675, 147 201.500 C 147 202.850, 149.238 203.436, 153.750 203.269 C 154.438 203.243, 155 203.669, 155 204.216 C 155 204.773, 156.760 205.042, 159 204.829 C 161.200 204.619, 163 204.797, 163 205.224 C 163 209.558, 179.056 203.974, 180.132 199.266 L 180.763 196.500 180.882 199.193 C 180.957 200.918, 180.219 202.434, 178.827 203.408 C 175.804 205.526, 178.385 206.437, 184.167 205.294 C 193.917 203.367, 193.839 185.471, 184.055 179.692 C 180.473 177.576, 166.315 178.849, 164.406 181.460 C 163.013 183.365, 151.187 181.898, 147.527 179.365 C 144.529 177.290, 141.966 177.719, 136.674 181.180 M 167.599 182.841 C 167.313 183.303, 169.199 184.165, 171.790 184.756 L 176.500 185.832 174.139 183.916 C 171.678 181.919, 168.492 181.395, 167.599 182.841" stroke="none" fill="#ff0013" fill-rule="evenodd"/><path d="M 48 16.841 C 48 17.304, 45.750 18.907, 43 20.403 C 40.077 21.995, 37.993 23.826, 37.983 24.812 C 37.974 25.741, 36.016 28.384, 33.631 30.686 C 24.512 39.491, 25.102 52.166, 35.002 60.122 C 37.892 62.445, 39 64.086, 39 66.045 C 39 70.517, 41.269 71.240, 58.500 72.263 C 60.700 72.393, 64.206 73.561, 66.292 74.857 C 69.140 76.628, 70.882 77.056, 73.292 76.576 C 82.380 74.767, 83.050 76.221, 75.293 80.920 C 32.389 106.913, 18.798 166.933, 45.499 212.500 C 47.755 216.350, 51.080 222.394, 52.888 225.931 C 58.104 236.138, 63 241.739, 63 237.500 C 63 235.223, 64.530 235.666, 69.837 239.479 C 72.501 241.392, 78.464 245.020, 83.090 247.541 C 87.715 250.062, 92.406 253.110, 93.513 254.313 C 97.435 258.575, 106.557 265.780, 110.637 267.838 L 114.774 269.925 124.421 265.830 C 136.640 260.643, 136.390 259.888, 124.044 264.697 L 114.698 268.337 110.108 265.918 C 105.260 263.364, 91.427 250.095, 89.164 245.828 C 87.942 243.526, 88.130 242.835, 91.345 237.810 C 93.279 234.786, 96.567 228.866, 98.650 224.656 C 102.981 215.903, 102.836 216.001, 105.500 220.033 C 106.600 221.698, 108.613 223.798, 109.972 224.699 C 111.891 225.971, 111.626 225.381, 108.786 222.064 C 103.897 216.352, 101.443 211.157, 102.931 209.669 C 104.664 207.936, 106.972 209.867, 111.676 216.986 C 113.972 220.462, 117.087 224.474, 118.598 225.903 L 121.344 228.500 119.649 225.750 C 117.665 222.531, 117.649 222.538, 122.486 224.559 C 124.538 225.416, 126.407 225.926, 126.640 225.693 C 126.873 225.460, 125.587 224.688, 123.782 223.977 C 116.815 221.234, 103.344 206.095, 105.044 202.918 C 106.007 201.118, 106.709 201.600, 113.323 208.611 L 120.549 216.271 128.525 216.605 L 136.500 216.938 128.603 215.666 L 120.707 214.394 114.442 207.781 C 108.279 201.276, 108.167 201.058, 107.565 194.334 C 107.228 190.575, 106.522 184.350, 105.996 180.500 C 105.471 176.650, 104.751 169.641, 104.397 164.925 L 103.753 156.350 106.980 152.675 C 108.969 150.410, 111.104 149, 112.545 149 C 113.830 149, 115.190 148.502, 115.566 147.893 C 116.008 147.179, 115.585 146.973, 114.375 147.314 C 113.344 147.604, 111.493 148.131, 110.262 148.484 C 108.413 149.015, 106.471 147.599, 99.065 140.313 L 90.106 131.500 90.698 115.712 L 91.290 99.924 93.645 102.136 C 94.940 103.353, 96.007 105.058, 96.015 105.924 C 96.026 107.056, 96.249 107.156, 96.807 106.279 C 97.370 105.391, 98.337 105.757, 100.342 107.616 C 106.781 113.587, 105.717 108.938, 99.195 102.602 C 93.707 97.272, 92.377 96.406, 91.820 97.800 C 91.354 98.967, 91.119 98.517, 91.070 96.367 C 91.017 93.994, 90.454 93.087, 88.750 92.630 C 84.581 91.513, 73.963 91.989, 70.468 93.449 C 66.798 94.982, 65.638 96.567, 68.956 95.514 C 71.994 94.550, 79.607 97.081, 77.394 98.319 C 71.405 101.671, 64.318 101.115, 63.340 97.218 C 62.447 93.660, 66.495 90.326, 72.731 89.485 C 75.354 89.131, 80.232 87.575, 83.572 86.027 L 89.643 83.213 89.199 77.071 C 87.873 58.742, 108.884 57.600, 139.271 74.350 C 148.320 79.338, 155.152 80.716, 160.750 78.683 C 163.729 77.600, 163.729 79.569, 160.750 82.847 C 159.512 84.208, 159.094 84.979, 159.821 84.558 C 160.824 83.978, 161.065 84.579, 160.821 87.056 C 160.533 89.987, 159.665 90.796, 152.280 95.022 C 147.759 97.609, 144.270 99.936, 144.527 100.193 C 145.109 100.776, 143.360 114.899, 142.393 117.419 C 140.932 121.226, 144.523 118.323, 148.566 112.429 C 152.611 106.532, 156.274 104.124, 159.383 105.317 C 165.359 107.610, 153.470 128.402, 147.130 126.744 C 145.909 126.425, 144.909 126.794, 144.565 127.692 C 143.722 129.889, 143.911 130.689, 144.904 129.122 C 146.334 126.863, 148.001 128.855, 147.988 132.809 C 147.943 146.827, 135.673 167.943, 125.500 171.510 C 122.153 172.683, 121.924 172.919, 124.100 172.956 C 131.950 173.089, 144.585 156.478, 148.029 141.500 C 149.852 133.566, 150.074 133.179, 151.182 136 C 151.755 137.461, 151.885 142.305, 151.496 147.651 C 151 154.452, 151.256 158.900, 152.493 164.965 C 153.409 169.454, 154.233 175.078, 154.325 177.462 C 154.516 182.393, 161.678 185.190, 164.441 181.412 C 166.225 178.971, 180.690 177.567, 183.704 179.542 C 186.261 181.217, 190.300 180.059, 195.964 176.026 C 201.181 172.311, 211.450 166.741, 215.500 165.429 C 218.288 164.526, 218.808 164.114, 217.217 164.067 C 215.961 164.030, 212.713 165.125, 210 166.500 C 194.687 174.259, 187.405 159.468, 199.173 144.508 C 201.782 141.190, 202.816 141.411, 216.905 148.287 C 252.604 165.712, 246.726 180.901, 199.113 194.261 C 191.596 196.371, 191.101 196.682, 190.541 199.650 C 189.795 203.608, 188.558 204.599, 183.287 205.469 C 178.063 206.330, 176.056 205.350, 178.927 203.339 C 180.226 202.429, 180.956 200.881, 180.882 199.193 L 180.763 196.500 180.132 199.266 C 179.007 204.190, 163 209.492, 163 204.941 C 163 204.359, 162.550 204.160, 162 204.500 C 160.158 205.639, 160.975 207, 163.500 207 C 164.875 207, 166 207.395, 166 207.878 C 166 209.872, 162.826 211.193, 158.927 210.822 C 154.872 210.435, 154.781 210.499, 152.277 215.465 C 149.546 220.883, 146.056 225.693, 139.321 233.323 C 128.622 245.443, 119.697 266.627, 128.195 259.730 C 135.227 254.023, 155.465 246.132, 157.599 248.265 C 158.113 248.779, 147.549 254.607, 140.796 257.535 C 136.089 259.576, 132.706 261.977, 136.500 260.584 C 138.432 259.875, 142.681 258.822, 157.500 255.380 C 169.354 252.627, 195 237.315, 195 232.991 C 195 229.955, 189.482 225.672, 187.167 226.910 C 184.203 228.497, 184.044 228.333, 185.070 224.757 C 185.581 222.973, 186 218.206, 186 214.163 C 186 207.685, 186.234 206.751, 187.975 206.296 C 189.061 206.012, 190.492 204.282, 191.153 202.452 C 192.284 199.326, 207.841 192.507, 209.670 194.336 C 210.798 195.465, 201.943 210.303, 194.788 219.272 L 192.577 222.044 196.155 225.622 L 199.734 229.201 203.617 225.059 C 209.273 219.026, 217.474 205.066, 220.683 196.004 L 223.473 188.127 230.390 185.343 C 237.512 182.476, 242.263 177.786, 243.652 172.249 C 244.422 169.181, 238.650 160.640, 231.437 154.176 C 226.850 150.065, 226.074 148.795, 225.021 143.665 C 219.562 117.080, 202.232 92.340, 179.721 79 C 173.252 75.166, 172.207 74.175, 172.659 72.305 C 173.127 70.368, 172.532 69.920, 167.582 68.481 C 161.015 66.572, 161.109 66, 168.483 63.007 C 177.105 59.507, 172.307 55.621, 156.649 53.424 C 151.222 52.662, 151.794 51.682, 158.720 49.877 C 170.331 46.852, 160.855 42.112, 143 42.015 L 138.500 41.991 141.750 38.945 C 147.595 33.467, 146.084 33.018, 130.341 35.551 C 120.882 37.073, 116.238 38.717, 112.744 41.781 C 110.011 44.177, 109.657 42.592, 111.930 38.137 C 114.408 33.280, 114.437 33, 112.460 33 C 106.119 33, 92 47.309, 92 53.735 C 92 56.101, 90.253 55.012, 89.617 52.250 C 89.238 50.608, 87.305 48.292, 84.818 46.500 C 81.517 44.122, 80.223 42.254, 78.577 37.487 C 76.382 31.133, 70.369 24, 67.207 24 C 66.258 24, 64.919 23.100, 64.232 22 C 63.545 20.900, 62.148 20, 61.126 20 C 60.105 20, 58.126 19.100, 56.727 18 C 54.221 16.029, 48 15.203, 48 16.841 M 48.491 19.014 C 48.146 19.572, 46.095 20.931, 43.932 22.035 C 38.524 24.793, 38.799 26.436, 44.536 25.650 C 48.698 25.080, 53.861 21.303, 53.968 18.750 C 54.016 17.618, 49.211 17.850, 48.491 19.014 M 52.542 22.367 C 49.324 25.585, 49.330 28.050, 52.565 31.894 C 54.914 34.687, 55.042 35.301, 54.089 39.221 L 53.048 43.500 53.542 39.213 C 54.740 28.806, 44.622 23.912, 36.122 30.787 C 30.183 35.590, 33.727 41.561, 41.759 40.287 C 45.563 39.684, 48 41.299, 48 44.422 C 48 48.895, 51.637 50.438, 52.308 46.250 C 52.600 44.422, 52.733 44.840, 52.705 47.500 C 52.651 52.487, 50.625 56.747, 46.742 60.037 C 42.206 63.880, 43.461 69.169, 48.837 68.861 C 50.852 68.746, 53.479 69.268, 54.676 70.020 C 56.404 71.107, 57.387 71.145, 59.449 70.205 C 61.745 69.159, 62.527 69.369, 66.174 72.011 C 68.443 73.655, 71.047 75, 71.959 75 C 73.761 75, 78.173 72.084, 76.450 72.032 C 75.873 72.014, 74.860 72.540, 74.200 73.200 C 72.449 74.951, 72.613 69.862, 74.449 65.468 C 76.113 61.486, 77.446 60.697, 75.975 64.565 C 74.369 68.790, 74.764 69.560, 80.485 73.358 C 87.238 77.842, 87.456 77.844, 87.686 73.395 C 87.788 71.417, 88.604 68.990, 89.498 68.002 C 92.425 64.768, 91.153 57.979, 87.188 55.671 L 83.877 53.744 80.688 56.622 L 77.500 59.500 80.416 56.272 C 82.643 53.806, 83.882 53.183, 85.666 53.631 C 89.785 54.665, 88.331 51.538, 83.002 47.907 C 80.253 46.033, 78.003 43.769, 78.002 42.876 C 77.995 36.983, 69.749 25.115, 66.522 26.353 C 65.756 26.647, 64.430 25.779, 63.518 24.387 C 62.574 22.946, 61.130 22.022, 60.096 22.197 C 59.112 22.364, 57.582 21.898, 56.696 21.162 C 55.315 20.016, 54.720 20.189, 52.542 22.367 M 29.639 38.695 C 22.116 46.217, 36.876 64.731, 46.067 59.301 C 52.489 55.508, 51.022 49.172, 43.883 49.868 C 40.876 50.161, 38 47.746, 38 44.929 C 38 43.868, 37.585 43, 37.077 43 C 36.569 43, 34.831 41.888, 33.216 40.528 C 31.600 39.168, 29.990 38.343, 29.639 38.695 M 41 43.500 C 39.559 45.236, 41.189 48, 43.654 48 C 45.645 48, 46.457 45.256, 44.989 43.487 C 43.433 41.611, 42.565 41.614, 41 43.500 M 40.607 62.826 C 39.775 64.174, 41.133 68, 42.443 68 C 43.219 68, 43.496 66.923, 43.213 65 C 42.786 62.088, 41.649 61.140, 40.607 62.826 M 162.550 89.750 C 162.190 93.463, 162.127 100.525, 162.409 105.445 L 162.921 114.390 169.210 116.583 C 181.056 120.715, 186.866 123.560, 189.003 126.276 C 190.179 127.771, 194.273 130.855, 198.102 133.130 C 201.931 135.405, 205.846 138.260, 206.801 139.474 C 212.274 146.432, 214.766 144.881, 212.118 136.164 C 205.760 115.231, 189.383 95.611, 169.783 85.446 C 163.329 82.099, 163.288 82.123, 162.550 89.750 M 79.096 99.189 C 76.674 100.301, 72.641 101.503, 70.134 101.862 C 53.631 104.222, 37.972 148.485, 43.428 177.347 C 47.246 197.540, 48.960 199.391, 54.944 189.783 C 60.307 181.171, 75.850 164.734, 85.218 157.768 C 92.913 152.046, 93.307 150.886, 86.538 153.880 C 78.994 157.217, 80.082 150.449, 88.606 141.015 L 92.125 137.120 90.312 134.352 C 88.799 132.041, 88.498 129.434, 88.487 118.542 C 88.474 105.470, 86.919 96.905, 84.592 97.084 C 83.991 97.131, 81.518 98.078, 79.096 99.189 M 120.591 106.078 C 117.342 108.235, 114.079 110, 113.341 110 C 112.604 110, 112 110.511, 112 111.136 C 112 112.445, 121.026 111.541, 121.946 110.140 C 122.251 109.676, 125.650 107.657, 129.500 105.655 L 136.500 102.013 131.500 102.084 C 127.422 102.142, 125.411 102.879, 120.591 106.078 M 129.070 112.809 C 129.027 116.110, 129.378 117.884, 130 117.500 C 131.198 116.760, 131.198 112.287, 130 109.500 C 129.370 108.035, 129.122 108.920, 129.070 112.809 M 95.310 114.500 C 95.315 117.800, 95.502 119.029, 95.725 117.232 C 95.947 115.435, 95.943 112.735, 95.715 111.232 C 95.486 109.729, 95.304 111.200, 95.310 114.500 M 152.080 111.415 C 150.582 113.010, 150.023 114.498, 150.435 115.796 C 150.841 117.075, 150.524 117.969, 149.530 118.350 C 147.321 119.198, 147.512 124.022, 149.750 123.921 C 150.795 123.874, 150.997 123.639, 150.250 123.338 C 148.528 122.643, 148.683 120.508, 150.570 118.942 C 151.433 118.226, 151.933 116.850, 151.680 115.885 C 151.005 113.302, 153.854 109.729, 156.117 110.320 C 157.153 110.591, 158 110.405, 158 109.906 C 158 108.109, 154.300 109.052, 152.080 111.415 M 102 114 C 102 115.867, 102.267 116.133, 103.200 115.200 C 104.133 114.267, 104.133 113.733, 103.200 112.800 C 102.267 111.867, 102 112.133, 102 114 M 103.500 123 C 103.160 123.550, 103.332 124, 103.882 124 C 104.432 124, 105.160 123.550, 105.500 123 C 105.840 122.450, 105.668 122, 105.118 122 C 104.568 122, 103.840 122.450, 103.500 123 M 142.459 133.067 C 142.096 133.653, 142.014 134.348, 142.276 134.610 C 142.538 134.872, 143.019 134.392, 143.345 133.543 C 144.021 131.781, 143.445 131.471, 142.459 133.067 M 116.652 135.049 C 113.986 135.496, 111.511 136.160, 111.152 136.525 C 110.167 137.525, 120.355 135.901, 121.450 134.883 C 121.973 134.397, 122.198 134.053, 121.950 134.118 C 121.703 134.182, 119.319 134.601, 116.652 135.049 M 138.881 138.371 C 137.441 139.640, 132.421 141.928, 127.726 143.455 L 119.190 146.232 122.709 150.866 C 124.645 153.415, 126.740 155.647, 127.364 155.826 C 128.179 156.060, 128.189 155.919, 127.400 155.326 C 126.345 154.534, 124 150.632, 124 149.669 C 124 149.415, 127.281 147.162, 131.292 144.662 C 135.303 142.162, 139.422 139.191, 140.447 138.059 C 142.906 135.342, 142.147 135.493, 138.881 138.371 M 114.232 155 C 114.232 156.925, 114.438 157.713, 114.689 156.750 C 114.941 155.787, 114.941 154.213, 114.689 153.250 C 114.438 152.287, 114.232 153.075, 114.232 155 M 115 160.941 C 115 162.009, 115.385 163.120, 115.856 163.411 C 116.326 163.702, 116.499 162.828, 116.239 161.470 C 115.675 158.519, 115 158.231, 115 160.941 M 197.500 171 C 197.160 171.550, 197.332 172, 197.882 172 C 198.432 172, 199.160 171.550, 199.500 171 C 199.840 170.450, 199.668 170, 199.118 170 C 198.568 170, 197.840 170.450, 197.500 171 M 187 176 C 187 178.306, 187.368 178.409, 190.201 176.893 C 191.861 176.004, 191.996 175.611, 190.885 174.908 C 188.576 173.446, 187 173.889, 187 176 M 136.750 180.021 C 134.137 181.661, 132 183.280, 132 183.617 C 132 184.180, 134.413 182.801, 139.473 179.347 C 142.044 177.591, 145.138 177.637, 147.559 179.468 C 148.626 180.276, 150.175 180.932, 151 180.926 C 153.242 180.911, 145.823 177.088, 143.500 177.061 C 142.400 177.048, 139.363 178.380, 136.750 180.021 M 167.599 182.841 C 167.313 183.303, 169.199 184.165, 171.790 184.756 L 176.500 185.832 174.139 183.916 C 171.678 181.919, 168.492 181.395, 167.599 182.841 M 134.557 187.252 C 135.478 188.765, 135.997 190.903, 135.710 192.002 C 135.370 193.300, 135.680 194, 136.594 194 C 139.178 194, 137.745 198.977, 135.143 199.039 C 134.239 199.061, 134.929 199.700, 136.676 200.460 C 143.535 203.443, 147.322 208.533, 143.750 209.969 C 141.577 210.842, 141.571 210.875, 143.595 210.937 C 146.916 211.037, 149.793 207.386, 147.073 206.523 C 144.900 205.833, 144.292 203.556, 146 202.500 C 146.550 202.160, 147 201.459, 147 200.941 C 147 200.423, 146.550 200, 146 200 C 145.450 200, 145 200.675, 145 201.500 C 145 203.435, 143.033 203.412, 140.223 201.443 C 137.886 199.807, 137.102 196.442, 139.250 197.266 C 139.995 197.552, 140.535 196.888, 140.586 195.623 C 140.634 194.455, 141.059 192.600, 141.530 191.500 C 142.350 189.590, 142.308 189.579, 140.613 191.259 C 138.738 193.118, 137 192.778, 137 190.552 C 137 189.820, 136.073 188.159, 134.941 186.861 L 132.881 184.500 134.557 187.252 M 97 193.432 C 77.726 200.173, 70.875 205.320, 67.693 215.454 C 63.370 229.221, 63.302 230.847, 67.196 227.323 C 68.937 225.747, 69.213 225.776, 71.774 227.798 C 78.345 232.987, 86.462 238.056, 87.772 237.790 C 90.292 237.277, 100.948 215.989, 100.302 212.758 C 99.924 210.868, 100.306 209.319, 101.468 208.036 C 102.418 206.985, 102.888 205.628, 102.512 205.019 C 102.135 204.410, 102.541 202.823, 103.414 201.491 C 105.004 199.064, 105.658 190.930, 104.250 191.079 C 103.838 191.123, 100.575 192.182, 97 193.432 M 130.733 199.124 C 131.412 199.808, 132.219 200.115, 132.526 199.807 C 132.834 199.499, 132.279 198.940, 131.293 198.564 C 129.868 198.022, 129.753 198.136, 130.733 199.124 M 154 204.930 C 154 206.137, 153.157 207.023, 151.750 207.294 C 149.821 207.666, 149.892 207.747, 152.250 207.864 C 154.553 207.978, 155 207.594, 155 205.500 C 155 204.125, 154.775 203, 154.500 203 C 154.225 203, 154 203.869, 154 204.930" stroke="none" fill="#202626" fill-rule="evenodd"/><path d="M 49.750 15.662 C 50.438 15.940, 51.563 15.940, 52.250 15.662 C 52.938 15.385, 52.375 15.158, 51 15.158 C 49.625 15.158, 49.063 15.385, 49.750 15.662 M 55 16.378 C 55 16.585, 55.788 17.373, 56.750 18.128 C 58.336 19.371, 58.371 19.336, 57.128 17.750 C 55.821 16.084, 55 15.555, 55 16.378 M 47.872 19.750 C 46.629 21.336, 46.664 21.371, 48.250 20.128 C 49.916 18.821, 50.445 18, 49.622 18 C 49.415 18, 48.627 18.788, 47.872 19.750 M 51.439 18.902 C 51.921 19.680, 47.962 22.653, 43 25.240 C 42.175 25.670, 43.234 25.763, 45.354 25.446 C 50.384 24.695, 56.757 18, 52.441 18 C 51.584 18, 51.133 18.406, 51.439 18.902 M 42.750 22.572 C 41.237 23.393, 40 24.517, 40 25.071 C 40 25.713, 40.454 25.689, 41.250 25.005 C 41.938 24.415, 43.400 23.286, 44.500 22.498 C 47.089 20.641, 46.243 20.677, 42.750 22.572 M 39.559 30.333 C 37.979 31.488, 37.954 31.667, 39.368 31.667 C 40.265 31.667, 41 31.265, 41 30.774 C 41 30.284, 41.450 30.160, 42 30.500 C 42.550 30.840, 43 30.641, 43 30.059 C 43 28.627, 41.756 28.727, 39.559 30.333 M 141.750 33.662 C 142.438 33.940, 143.563 33.940, 144.250 33.662 C 144.938 33.385, 144.375 33.158, 143 33.158 C 141.625 33.158, 141.063 33.385, 141.750 33.662 M 128.813 35.683 C 129.534 35.972, 130.397 35.936, 130.729 35.604 C 131.061 35.272, 130.471 35.036, 129.417 35.079 C 128.252 35.127, 128.015 35.364, 128.813 35.683 M 99.946 39.750 L 96.500 43.500 100.250 40.054 C 102.313 38.158, 104 36.471, 104 36.304 C 104 35.540, 103.154 36.260, 99.946 39.750 M 29.459 39.067 C 29.096 39.653, 29.070 40.403, 29.400 40.733 C 29.730 41.063, 30 40.739, 30 40.012 C 30 39.089, 30.679 39.265, 32.250 40.595 L 34.500 42.500 32.595 40.250 C 30.404 37.662, 30.341 37.639, 29.459 39.067 M 140.872 39.750 C 139.629 41.336, 139.664 41.371, 141.250 40.128 C 142.916 38.821, 143.445 38, 142.622 38 C 142.415 38, 141.627 38.788, 140.872 39.750 M 110.613 42.183 C 110.902 42.650, 111.557 42.774, 112.069 42.457 C 113.377 41.649, 113.230 41.333, 111.544 41.333 C 110.743 41.333, 110.324 41.716, 110.613 42.183 M 41 43.500 C 39.559 45.236, 41.189 48, 43.654 48 C 45.645 48, 46.457 45.256, 44.989 43.487 C 43.433 41.611, 42.565 41.614, 41 43.500 M 37.086 44.316 C 36.970 46.774, 38.792 50.004, 40.285 49.985 C 41.177 49.973, 41.157 49.751, 40.208 49.149 C 39.497 48.698, 38.523 47.018, 38.044 45.415 C 37.533 43.708, 37.136 43.253, 37.086 44.316 M 41.446 44.087 C 40.416 45.755, 42.733 47.667, 44.113 46.287 C 45.267 45.133, 44.545 43, 43 43 C 42.515 43, 41.816 43.489, 41.446 44.087 M 29.079 49.583 C 29.127 50.748, 29.364 50.985, 29.683 50.188 C 29.972 49.466, 29.936 48.603, 29.604 48.271 C 29.272 47.939, 29.036 48.529, 29.079 49.583 M 42.813 50.683 C 43.534 50.972, 44.397 50.936, 44.729 50.604 C 45.061 50.272, 44.471 50.036, 43.417 50.079 C 42.252 50.127, 42.015 50.364, 42.813 50.683 M 49 52.643 C 49 53.612, 47.538 55.954, 45.750 57.848 L 42.500 61.291 45.721 59.447 C 49.026 57.555, 51.678 52.537, 49.940 51.463 C 49.423 51.143, 49 51.675, 49 52.643 M 80.740 56.750 C 78.088 59.519, 75 65.747, 75 68.326 C 75 69.612, 85.007 77.006, 86.735 76.996 C 87.156 76.993, 87.584 75.373, 87.686 73.395 C 87.788 71.417, 88.576 69.021, 89.436 68.071 C 92.396 64.800, 91.484 58.266, 87.750 55.989 C 83.662 53.497, 83.879 53.473, 80.740 56.750 M 33.496 56.843 C 34.586 58.131, 36.383 59.649, 37.489 60.215 C 39.613 61.303, 39.303 60.967, 34.507 56.985 C 31.620 54.588, 31.584 54.583, 33.496 56.843 M 40.607 62.826 C 39.775 64.174, 41.133 68, 42.443 68 C 43.219 68, 43.496 66.923, 43.213 65 C 42.786 62.088, 41.649 61.140, 40.607 62.826 M 38.158 65 C 38.158 66.375, 38.385 66.938, 38.662 66.250 C 38.940 65.563, 38.940 64.438, 38.662 63.750 C 38.385 63.063, 38.158 63.625, 38.158 65 M 198 93.500 C 200.987 96.525, 203.657 99, 203.932 99 C 204.207 99, 201.987 96.525, 199 93.500 C 196.013 90.475, 193.343 88, 193.068 88 C 192.793 88, 195.013 90.475, 198 93.500 M 59.453 93.250 L 55.500 97.500 59.750 93.547 C 63.702 89.871, 64.460 89, 63.703 89 C 63.540 89, 61.627 90.912, 59.453 93.250 M 91.070 96.281 C 91.118 98.463, 91.359 98.952, 91.820 97.800 C 92.377 96.406, 93.707 97.272, 99.195 102.602 C 105.713 108.934, 106.783 113.589, 100.349 107.623 C 98.835 106.219, 97.393 105.273, 97.145 105.521 C 96.898 105.769, 97.868 106.895, 99.302 108.023 C 100.997 109.356, 101.690 110.643, 101.285 111.701 C 100.886 112.741, 101.058 113.082, 101.761 112.648 C 103.274 111.712, 104.477 113.923, 103.167 115.233 C 102.585 115.815, 102.365 117.576, 102.679 119.146 C 103.087 121.185, 102.857 121.991, 101.875 121.968 C 98.498 121.890, 97.253 119.478, 96.843 112.221 C 96.496 106.081, 96.042 104.588, 93.863 102.408 L 91.293 99.838 90.699 115.669 L 90.106 131.500 99.065 140.313 C 105.228 146.376, 108.567 148.976, 109.762 148.643 C 110.718 148.377, 112.569 147.850, 113.875 147.472 C 115.494 147.004, 116.033 147.138, 115.566 147.893 C 115.190 148.502, 113.830 149, 112.545 149 C 108.219 149, 103.976 155.207, 104.147 161.285 L 104.294 166.500 104.903 160.824 C 105.338 156.766, 106.201 154.415, 107.930 152.574 C 111.632 148.633, 112.643 149.309, 113.364 156.206 C 114.383 165.956, 119.193 174, 124.005 174 C 131.835 174, 146.543 155.366, 148.522 142.937 C 148.889 140.635, 148.455 141.316, 147.206 145 C 142.198 159.782, 131.210 173.076, 124.100 172.956 C 121.924 172.919, 122.153 172.683, 125.500 171.510 C 135.673 167.943, 147.943 146.827, 147.988 132.809 C 148.001 128.805, 146.366 126.917, 144.794 129.122 C 144.046 130.171, 143.953 130.062, 144.406 128.668 C 144.733 127.661, 145 126.690, 145 126.512 C 145 126.333, 145.930 126.430, 147.066 126.727 C 153.458 128.399, 165.407 107.628, 159.383 105.317 C 156.274 104.124, 152.611 106.532, 148.566 112.429 C 144.523 118.323, 140.932 121.226, 142.393 117.419 C 143.430 114.716, 145.068 100.919, 144.468 99.948 C 143.580 98.512, 123.730 107.515, 121.946 110.162 C 121.011 111.549, 112 112.431, 112 111.136 C 112 110.511, 112.577 110, 113.281 110 C 114.835 110, 126.004 103.121, 125.989 102.173 C 125.984 101.803, 118.671 99.760, 109.739 97.633 C 100.808 95.506, 92.938 93.608, 92.250 93.415 C 91.427 93.183, 91.024 94.161, 91.070 96.281 M 162.232 96 C 162.232 97.925, 162.438 98.713, 162.689 97.750 C 162.941 96.787, 162.941 95.213, 162.689 94.250 C 162.438 93.287, 162.232 94.075, 162.232 96 M 131.142 109.552 C 132.440 114.254, 131.899 118.500, 130 118.500 C 128.896 118.500, 128.420 117.116, 128.198 113.250 C 127.866 107.494, 127.556 107.222, 124.090 109.650 C 121.896 111.186, 121.321 123.654, 123.351 125.684 C 124.628 126.961, 131.815 123.820, 132.372 121.742 C 133.156 118.816, 133.170 109.606, 132.393 107.582 C 131.198 104.468, 130.181 106.070, 131.142 109.552 M 163.158 108 C 163.158 109.375, 163.385 109.938, 163.662 109.250 C 163.940 108.563, 163.940 107.438, 163.662 106.750 C 163.385 106.063, 163.158 106.625, 163.158 108 M 129.070 112.809 C 129.027 116.110, 129.378 117.884, 130 117.500 C 131.198 116.760, 131.198 112.287, 130 109.500 C 129.370 108.035, 129.122 108.920, 129.070 112.809 M 95.310 114.500 C 95.315 117.800, 95.502 119.029, 95.725 117.232 C 95.947 115.435, 95.943 112.735, 95.715 111.232 C 95.486 109.729, 95.304 111.200, 95.310 114.500 M 152.080 111.415 C 150.582 113.010, 150.023 114.498, 150.435 115.796 C 150.841 117.075, 150.524 117.969, 149.530 118.350 C 147.321 119.198, 147.512 124.022, 149.750 123.921 C 150.795 123.874, 150.997 123.639, 150.250 123.338 C 148.528 122.643, 148.683 120.508, 150.570 118.942 C 151.433 118.226, 151.933 116.850, 151.680 115.885 C 151.005 113.302, 153.854 109.729, 156.117 110.320 C 157.153 110.591, 158 110.405, 158 109.906 C 158 108.109, 154.300 109.052, 152.080 111.415 M 103.500 123 C 103.160 123.550, 103.332 124, 103.882 124 C 104.432 124, 105.160 123.550, 105.500 123 C 105.840 122.450, 105.668 122, 105.118 122 C 104.568 122, 103.840 122.450, 103.500 123 M 190 127.500 C 191.292 128.875, 192.574 130, 192.849 130 C 193.124 130, 192.292 128.875, 191 127.500 C 189.708 126.125, 188.426 125, 188.151 125 C 187.876 125, 188.708 126.125, 190 127.500 M 142.459 133.067 C 142.096 133.653, 142.014 134.348, 142.276 134.610 C 142.538 134.872, 143.019 134.392, 143.345 133.543 C 144.021 131.781, 143.445 131.471, 142.459 133.067 M 116.652 135.049 C 113.986 135.496, 111.511 136.160, 111.152 136.525 C 110.167 137.525, 120.355 135.901, 121.450 134.883 C 121.973 134.397, 122.198 134.053, 121.950 134.118 C 121.703 134.182, 119.319 134.601, 116.652 135.049 M 149.667 134.667 C 149.300 135.033, 149.029 136.271, 149.063 137.417 C 149.122 139.332, 149.204 139.307, 150.085 137.105 C 151.064 134.657, 150.861 133.472, 149.667 134.667 M 138.881 138.371 C 137.441 139.640, 132.421 141.928, 127.726 143.455 L 119.190 146.232 122.709 150.866 C 124.645 153.415, 126.740 155.647, 127.364 155.826 C 128.179 156.060, 128.189 155.919, 127.400 155.326 C 126.345 154.534, 124 150.632, 124 149.669 C 124 149.415, 127.281 147.162, 131.292 144.662 C 135.303 142.162, 139.422 139.191, 140.447 138.059 C 142.906 135.342, 142.147 135.493, 138.881 138.371 M 88.924 139.750 L 86.500 142.500 89.250 140.076 C 90.763 138.742, 92 137.505, 92 137.326 C 92 136.541, 91.190 137.180, 88.924 139.750 M 151.310 142.500 C 151.315 145.800, 151.502 147.029, 151.725 145.232 C 151.947 143.435, 151.943 140.735, 151.715 139.232 C 151.486 137.729, 151.304 139.200, 151.310 142.500 M 205 137.378 C 205 137.585, 205.787 138.373, 206.750 139.128 C 208.336 140.371, 208.371 140.336, 207.128 138.750 C 205.821 137.084, 205 136.555, 205 137.378 M 199.173 144.508 C 191.995 153.632, 191.241 164.317, 197.583 167.036 C 203.422 169.538, 204.058 169.511, 210 166.500 C 212.713 165.125, 215.961 164.030, 217.217 164.067 C 218.808 164.114, 218.288 164.526, 215.500 165.429 C 211.487 166.729, 203.784 170.923, 194.554 176.833 C 191.834 178.575, 189.022 180, 188.304 180 C 186.510 180, 186.668 181.315, 188.927 185.193 C 189.986 187.012, 191.161 190.188, 191.538 192.250 C 192.368 196.799, 191.904 196.786, 204.373 192.604 C 240.037 180.642, 245.673 175.414, 236.319 162.971 C 231.231 156.203, 225.856 152.333, 213.646 146.645 C 202.550 141.476, 201.661 141.344, 199.173 144.508 M 150.100 155.083 C 150.155 157.512, 150.562 160.625, 151.005 162 C 151.488 163.500, 151.592 161.900, 151.265 158 C 150.628 150.404, 149.956 148.722, 150.100 155.083 M 89.584 153.641 C 89.057 155.014, 89.204 155.076, 90.477 154.019 C 92.212 152.579, 92.393 152, 91.107 152 C 90.616 152, 89.931 152.739, 89.584 153.641 M 114.232 155 C 114.232 156.925, 114.438 157.713, 114.689 156.750 C 114.941 155.787, 114.941 154.213, 114.689 153.250 C 114.438 152.287, 114.232 153.075, 114.232 155 M 115 160.941 C 115 162.009, 115.385 163.120, 115.856 163.411 C 116.326 163.702, 116.499 162.828, 116.239 161.470 C 115.675 158.519, 115 158.231, 115 160.941 M 70.966 169.750 L 65.500 175.500 71.250 170.034 C 74.412 167.028, 77 164.440, 77 164.284 C 77 163.542, 76.044 164.408, 70.966 169.750 M 152.176 166.500 C 152.143 167.600, 152.488 170.300, 152.943 172.500 C 153.638 175.863, 153.769 176.022, 153.767 173.500 C 153.763 169.997, 152.269 163.425, 152.176 166.500 M 31.079 168.583 C 31.127 169.748, 31.364 169.985, 31.683 169.188 C 31.972 168.466, 31.936 167.603, 31.604 167.271 C 31.272 166.939, 31.036 167.529, 31.079 168.583 M 105.286 172.500 C 105.294 175.250, 105.488 176.256, 105.718 174.736 C 105.947 173.216, 105.941 170.966, 105.704 169.736 C 105.467 168.506, 105.279 169.750, 105.286 172.500 M 197.500 171 C 197.160 171.550, 197.332 172, 197.882 172 C 198.432 172, 199.160 171.550, 199.500 171 C 199.840 170.450, 199.668 170, 199.118 170 C 198.568 170, 197.840 170.450, 197.500 171 M 187 176 C 187 177.100, 187.436 178, 187.969 178 C 188.501 178, 188.678 177.325, 188.362 176.500 C 188.045 175.675, 188.284 175, 188.893 175 C 189.502 175, 190 175.477, 190 176.059 C 190 176.641, 190.498 176.810, 191.107 176.434 C 191.878 175.957, 191.803 175.490, 190.857 174.890 C 188.575 173.445, 187 173.898, 187 176 M 144.172 176.979 C 145.641 177.422, 147.441 178.092, 148.172 178.467 C 148.902 178.842, 148.626 178.440, 147.559 177.574 C 146.491 176.708, 144.691 176.039, 143.559 176.086 C 141.907 176.155, 142.028 176.331, 144.172 176.979 M 154.079 178.317 C 154.019 179.707, 153.470 179.990, 151.750 179.520 C 149.719 178.964, 149.680 179.017, 151.346 180.056 C 153.472 181.381, 155.554 180, 154.691 177.838 C 154.341 176.960, 154.131 177.125, 154.079 178.317 M 106.195 180.500 C 106.215 182.150, 106.439 182.704, 106.693 181.731 C 106.947 180.758, 106.930 179.408, 106.656 178.731 C 106.382 178.054, 106.175 178.850, 106.195 180.500 M 129.410 184.391 L 125.598 187.783 127.402 191.783 C 128.631 194.509, 128.986 196.788, 128.515 198.933 C 127.690 202.688, 130.270 207.494, 132.626 206.590 C 133.439 206.278, 133.849 206.435, 133.537 206.939 C 132.803 208.128, 136.627 209.349, 138.146 208.410 C 138.854 207.972, 139.040 208.126, 138.622 208.803 C 137.075 211.306, 143.557 213.136, 146.307 210.973 C 152.990 205.716, 155.044 208.479, 150.593 216.738 C 148.744 220.169, 147.639 222.723, 148.138 222.415 C 148.637 222.107, 150.342 219.284, 151.928 216.142 C 154.812 210.430, 154.813 210.429, 158.925 210.821 C 162.826 211.193, 166 209.873, 166 207.878 C 166 207.395, 164.875 207, 163.500 207 C 162.125 207, 161 206.550, 161 206 C 161 205.450, 159.650 205, 158 205 C 156 205, 155 205.500, 155 206.500 C 155 207.503, 154.088 207.955, 152.250 207.864 C 149.892 207.747, 149.821 207.666, 151.750 207.294 C 152.988 207.056, 154 206.226, 154 205.450 C 154 204.135, 152.374 203.463, 147.536 202.778 C 144.760 202.385, 144.305 205.645, 147.016 206.505 C 149.785 207.384, 146.963 211.039, 143.595 210.937 C 141.571 210.875, 141.577 210.842, 143.750 209.969 C 147.322 208.533, 143.535 203.443, 136.676 200.460 C 134.929 199.700, 134.239 199.061, 135.143 199.039 C 137.745 198.977, 139.178 194, 136.594 194 C 135.663 194, 135.371 193.299, 135.729 191.929 C 136.059 190.666, 135.408 188.690, 134.062 186.870 C 132.303 184.490, 132.096 183.589, 133.049 182.441 C 135.136 179.927, 133.354 180.881, 129.410 184.391 M 107.286 190.500 C 107.294 193.250, 107.488 194.256, 107.718 192.736 C 107.947 191.216, 107.941 188.966, 107.704 187.736 C 107.467 186.506, 107.279 187.750, 107.286 190.500 M 103.500 192 C 103.840 192.550, 104.316 193, 104.559 193 C 104.802 193, 105 192.550, 105 192 C 105 191.450, 104.523 191, 103.941 191 C 103.359 191, 103.160 191.450, 103.500 192 M 91 195.500 C 87.734 197.367, 88.877 197.388, 93.135 195.539 C 94.986 194.736, 95.825 194.077, 95 194.075 C 94.175 194.073, 92.375 194.714, 91 195.500 M 207 194.393 C 207 194.609, 207.675 195.045, 208.500 195.362 C 209.325 195.678, 210 195.501, 210 194.969 C 210 194.436, 209.325 194, 208.500 194 C 207.675 194, 207 194.177, 207 194.393 M 138 198.443 C 138 200.039, 141.719 203, 143.723 203 C 146.023 203, 145.062 200.468, 142.096 198.716 C 138.559 196.627, 138 196.589, 138 198.443 M 103.212 200.032 C 101.421 202.900, 101.739 203.818, 103.602 201.158 C 104.483 199.900, 105.029 198.695, 104.814 198.481 C 104.600 198.266, 103.879 198.964, 103.212 200.032 M 130.733 199.124 C 131.412 199.808, 132.219 200.115, 132.526 199.807 C 132.834 199.499, 132.279 198.940, 131.293 198.564 C 129.868 198.022, 129.753 198.136, 130.733 199.124 M 193.029 198.961 C 192.220 199.473, 191.771 200.104, 192.031 200.364 C 192.290 200.624, 193.376 200.198, 194.443 199.418 C 196.576 197.858, 195.383 197.472, 193.029 198.961 M 80 201.089 C 78.339 202.448, 78.172 202.787, 79.500 202.101 C 82.762 200.415, 84.570 199.030, 83.500 199.038 C 82.950 199.041, 81.375 199.965, 80 201.089 M 109.733 202.531 C 113.425 207.883, 121.754 215.006, 124.207 214.910 C 126.060 214.837, 125.891 214.643, 123.332 213.902 C 121.418 213.348, 117.684 210.315, 113.903 206.243 C 110.460 202.534, 108.583 200.864, 109.733 202.531 M 105.096 202.820 C 104.204 204.487, 104.458 205.391, 106.504 207.822 C 109.477 211.355, 109.808 213.042, 107.037 210.534 C 105.019 208.707, 102 209.041, 102 211.091 C 102 211.882, 102.512 211.820, 103.628 210.894 C 105.044 209.719, 105.635 209.995, 108.179 213.022 C 109.971 215.154, 110.834 215.726, 110.408 214.500 C 109.983 213.277, 111.705 214.422, 114.843 217.449 C 117.961 220.458, 119.544 222.663, 118.880 223.074 C 118.091 223.562, 118.095 223.941, 118.893 224.434 C 119.502 224.810, 119.987 225.654, 119.971 226.309 C 119.941 227.516, 115.986 223.528, 112.706 218.985 C 110.972 216.582, 110.971 216.608, 112.677 219.758 C 114.837 223.748, 122.708 231.625, 123.622 230.712 C 124.634 229.699, 121.932 226.933, 120.637 227.658 C 119.791 228.131, 119.789 227.979, 120.630 227.067 C 121.486 226.138, 122.700 226.101, 125.630 226.914 C 134.678 229.427, 135.118 227.433, 126.267 224.026 C 120.005 221.616, 106 208.308, 106 204.768 C 106 202.245, 106.085 202.301, 113.568 209.750 L 120.349 216.500 113.985 209.500 C 110.485 205.650, 107.298 202.114, 106.903 201.643 C 106.508 201.171, 105.695 201.701, 105.096 202.820 M 71.573 206.521 C 70.513 207.323, 69.878 208.212, 70.162 208.496 C 70.447 208.780, 71.496 208.110, 72.494 207.006 C 74.621 204.657, 74.277 204.476, 71.573 206.521 M 100.682 207.626 C 99.682 208.963, 99.068 210.831, 99.316 211.778 C 99.702 213.249, 99.785 213.220, 99.884 211.579 C 99.948 210.522, 100.747 208.832, 101.661 207.823 C 102.574 206.813, 103.136 205.810, 102.911 205.592 C 102.685 205.374, 101.682 206.289, 100.682 207.626 M 186.417 207.355 C 186.131 208.101, 186.059 211.588, 186.256 215.105 L 186.615 221.500 186.807 214.323 C 186.966 208.428, 187.313 207.065, 188.750 206.689 C 190.390 206.261, 190.388 206.225, 188.719 206.116 C 187.739 206.052, 186.703 206.610, 186.417 207.355 M 196.177 216.135 C 191.168 222.292, 191.205 221.908, 195.250 225.563 L 198.500 228.500 195.606 225.295 C 192.390 221.733, 192.324 221.977, 198.612 214.250 C 200.066 212.463, 201.053 211, 200.805 211 C 200.557 211, 198.474 213.311, 196.177 216.135 M 103 213.446 C 103 214.464, 106.761 219.874, 109.911 223.388 L 112.500 226.275 110 224.668 C 108.625 223.784, 106.600 221.698, 105.500 220.033 C 102.839 216.006, 102.975 215.916, 98.727 224.500 C 96.686 228.625, 95.230 232, 95.491 232 C 95.753 232, 97.153 229.637, 98.603 226.750 C 100.054 223.863, 101.388 221.336, 101.568 221.136 C 101.748 220.936, 103.156 221.764, 104.697 222.977 C 111.385 228.238, 118.047 229.112, 112.296 223.973 C 110.535 222.399, 107.722 219.219, 106.047 216.906 C 104.371 214.593, 103 213.035, 103 213.446 M 97.208 220.532 C 95.454 224.089, 94.233 227, 94.495 227 C 95.165 227, 101.211 214.878, 100.764 214.431 C 100.563 214.229, 98.962 216.975, 97.208 220.532 M 129.269 215.693 C 130.242 215.947, 131.592 215.930, 132.269 215.656 C 132.946 215.382, 132.150 215.175, 130.500 215.195 C 128.850 215.215, 128.296 215.439, 129.269 215.693 M 121.813 216.683 C 122.534 216.972, 123.397 216.936, 123.729 216.604 C 124.061 216.272, 123.471 216.036, 122.417 216.079 C 121.252 216.127, 121.015 216.364, 121.813 216.683 M 131 217 L 125.500 217.674 132.250 217.837 C 136.192 217.932, 139 217.584, 139 217 C 139 216.450, 138.438 216.073, 137.750 216.163 C 137.063 216.253, 134.025 216.629, 131 217 M 65.158 224 C 65.158 225.375, 65.385 225.938, 65.662 225.250 C 65.940 224.563, 65.940 223.438, 65.662 222.750 C 65.385 222.063, 65.158 222.625, 65.158 224 M 121 223.909 C 121.825 224.376, 123.625 225.056, 125 225.421 L 127.500 226.083 125 224.577 C 123.625 223.749, 121.825 223.069, 121 223.066 C 119.667 223.061, 119.667 223.155, 121 223.909 M 184.839 225.250 C 184.237 228.199, 184.640 228.525, 187 227 C 187.876 226.434, 188.010 226.024, 187.323 226.015 C 186.676 226.007, 185.979 225.213, 185.774 224.250 C 185.516 223.040, 185.227 223.349, 184.839 225.250 M 141.470 229.750 C 135.289 236.894, 132.421 240.909, 137.363 235.500 C 142.014 230.409, 147.277 224, 146.806 224 C 146.608 224, 144.206 226.588, 141.470 229.750 M 202.872 225.750 C 201.629 227.336, 201.664 227.371, 203.250 226.128 C 204.916 224.821, 205.445 224, 204.622 224 C 204.415 224, 203.627 224.787, 202.872 225.750 M 67.009 226.489 C 66.329 227.308, 65.374 227.731, 64.887 227.430 C 64.399 227.129, 64 227.359, 64 227.941 C 64 229.470, 65.554 229.242, 67 227.500 C 68.685 225.469, 69.316 225.583, 73.173 228.614 L 76.500 231.227 73.234 228.114 C 69.540 224.591, 68.754 224.386, 67.009 226.489 M 90.900 232.482 C 88.065 237.827, 87.773 237.876, 81.696 234.022 C 79.113 232.384, 77 231.269, 77 231.544 C 77 232.354, 86.279 238, 87.610 238 C 88.797 238, 94.393 229.060, 93.663 228.330 C 93.462 228.129, 92.219 229.997, 90.900 232.482 M 91.078 238.182 C 87.110 244.565, 87.344 245.164, 98.009 255.924 C 107.093 265.089, 113.658 268.964, 117.152 267.223 C 119.451 266.077, 119.443 266.065, 116.766 266.631 C 109.602 268.145, 86.741 246.828, 89.987 241.662 C 93.298 236.394, 95.163 233, 94.748 233 C 94.501 233, 92.849 235.332, 91.078 238.182 M 130.595 244.250 C 127.679 249.229, 123.686 258.045, 124.166 258.441 C 124.350 258.593, 126.570 254.505, 129.101 249.358 C 134.043 239.306, 134.594 237.422, 130.595 244.250 M 152.500 249 C 151.145 249.582, 150.984 249.890, 152 249.954 C 152.825 250.006, 151.363 251.238, 148.751 252.692 C 146.139 254.146, 144.163 255.496, 144.360 255.693 C 144.676 256.010, 156.854 249.471, 157.917 248.414 C 158.662 247.673, 154.555 248.117, 152.500 249 M 146.813 250.683 C 147.534 250.972, 148.397 250.936, 148.729 250.604 C 149.061 250.272, 148.471 250.036, 147.417 250.079 C 146.252 250.127, 146.015 250.364, 146.813 250.683 M 140 252.500 C 136.734 254.367, 137.877 254.388, 142.135 252.539 C 143.986 251.736, 144.825 251.077, 144 251.075 C 143.175 251.073, 141.375 251.714, 140 252.500 M 92 253.378 C 92 253.585, 92.787 254.373, 93.750 255.128 C 95.336 256.371, 95.371 256.336, 94.128 254.750 C 92.821 253.084, 92 252.555, 92 253.378 M 131.770 257.029 C 129.254 258.695, 126.647 260.720, 125.976 261.529 C 125.304 262.338, 124.328 263, 123.806 263 C 123.284 263, 122.182 263.675, 121.357 264.500 C 119.565 266.292, 119.769 266.325, 123.850 264.903 C 125.581 264.299, 126.767 263.432, 126.486 262.977 C 126.204 262.521, 127.795 260.878, 130.022 259.324 C 137.041 254.427, 137.513 254.064, 136.921 254.032 C 136.603 254.014, 134.285 255.363, 131.770 257.029 M 138 258 C 137.175 258.533, 136.950 258.969, 137.500 258.969 C 138.050 258.969, 139.175 258.533, 140 258 C 140.825 257.467, 141.050 257.031, 140.500 257.031 C 139.950 257.031, 138.825 257.467, 138 258 M 131 260.950 C 127.688 262.715, 127.642 262.807, 130.154 262.658 C 131.614 262.571, 132.552 262.086, 132.240 261.580 C 131.928 261.074, 132.383 260.933, 133.253 261.267 C 134.163 261.616, 135.068 261.264, 135.386 260.437 C 136.100 258.576, 135.271 258.673, 131 260.950" stroke="none" fill="#f4e7e4" fill-rule="evenodd"/></svg>